<?xml version="1.0" encoding="utf-8"?>
<!-- Generator: Adobe Illustrator 27.5.0, SVG Export Plug-In . SVG Version: 6.00 Build 0)  -->
<svg version="1.1" xmlns="http://www.w3.org/2000/svg" xmlns:xlink="http://www.w3.org/1999/xlink" x="0px" y="0px"
	 viewBox="0 0 500 500" style="enable-background:new 0 0 500 500;" xml:space="preserve">
<g id="BACKGROUND">
	<rect style="fill:#FEE0EA;" width="500" height="500"/>
</g>
<g id="OBJECTS">
	<g>
		<path style="fill:#73D4A2;" d="M170.24,254.388c-7.892,0.729-15.397,1.422-23.178,2.141c-0.568,4.272-1.113,8.586-1.719,12.891
			c-1.053,7.484-2.141,14.964-3.227,22.444c-0.078,0.538-0.257,1.061-0.394,1.59c-0.561,2.171-1.256,4.263-3.759,4.925
			c-3.043,0.805-6.009,0.612-8.616-1.264c-0.737-0.53-1.307-1.569-1.527-2.478c-0.36-1.487-0.465-3.056-0.515-4.596
			c-0.3-9.417,0.984-18.732,1.843-28.076c1.083-11.794,2.064-23.597,3.142-35.392c0.689-7.53,1.528-15.047,2.201-22.579
			c0.6-6.715,1.115-13.438,1.571-20.164c0.359-5.298,0.785-5.881,6.052-6.391c8.158-0.79,16.311-1.74,24.49-2.18
			c8.143-0.438,16.202,0.519,23.953,3.271c6.27,2.227,11.812,5.694,16.639,10.248c10.476,9.883,12.931,21.769,8.469,35.233
			c-2.747,8.289-7.864,14.779-15.548,19.013c-3.98,2.193-8.176,3.993-12.278,5.963c-0.639,0.307-1.297,0.576-1.919,0.851
			c3.338,14.232,15.083,29.58,32.883,32.679c8.347,1.453,16.689,1.322,25.067,0.796c5.007-0.315,10.019-0.72,14.986,0.272
			c1.491,0.298,3.034,0.781,4.325,1.558c4.082,2.455,4.343,7.542,0.667,10.527c-2.224,1.806-4.879,2.49-7.628,2.637
			c-14.846,0.792-29.695,1.075-44.51-0.529c-10.625-1.15-19.078-6.197-25.62-14.59c-5.425-6.959-9.248-14.817-12.929-22.763
			C172.176,258.299,171.121,256.205,170.24,254.388z M149.033,238.659c0.846,0,1.21,0.036,1.566-0.005
			c7.695-0.891,15.353-2.03,22.844-4.037c4.741-1.27,9.497-2.564,14.101-4.246c4.788-1.75,8.35-5.102,10.572-9.773
			c3.332-7.005,1.127-16.887-3.499-22.374c-0.577-0.685-1.318-1.283-2.089-1.744c-5.047-3.019-10.378-5.487-16.303-5.846
			c-7.359-0.445-14.744-0.447-22.119-0.616c-0.597-0.014-1.199,0.164-2.058,0.291C151.043,206.413,150.048,222.384,149.033,238.659z
			"/>
		<path style="fill:#FFD400;" d="M107.179,232.428c-5.051,0-10.043-0.034-15.035,0.009c-5.192,0.045-10.383,0.205-15.575,0.236
			c-2.726,0.017-5.007-1.006-7.23-2.713c-2.854-2.192-2.756-5.956-0.235-7.999c1.579-1.28,3.529-2.433,5.482-2.854
			c4.527-0.975,9.137-1.835,13.749-2.084c9.094-0.49,18.212-0.576,27.322-0.724c1.894-0.031,3.818,0.28,5.688,0.638
			c2.289,0.439,3.74,1.884,3.968,4.267c0.137,1.439,0.18,2.912,0.038,4.347c-0.98,9.905-3.087,19.61-5.414,29.264
			c-1.621,6.724-3.143,13.502-5.324,20.052c-2.659,7.988-7.209,14.885-13.909,20.215c-5.207,4.142-10.978,6.755-17.723,6.983
			c-5.999,0.202-11.562-1.534-16.799-4.155c-11.672-5.841-18.106-15.751-20.865-28.198c-1.444-6.515-1.758-13.164-1.502-19.848
			c0.413-10.758,1.307-21.465,3.088-32.084c1.499-8.943,3.951-17.561,8.522-25.513c7.076-12.309,17.928-18.719,31.675-20.849
			c8.669-1.344,16.907,0.021,24.682,3.951c7.864,3.974,12.876,10.29,14.635,18.997c0.557,2.759,0.944,5.567,1.186,8.371
			c0.23,2.673-0.32,5.285-1.608,7.662c-2.058,3.798-6.362,4.709-9.74,2.159c-1.422-1.073-1.914-2.557-2.209-4.23
			c-0.553-3.13-1.131-6.261-1.854-9.356c-2.466-10.546-11.044-13.852-20.196-12.601c-9.14,1.248-16.133,5.74-20.942,13.709
			c-4.974,8.241-8.073,17.12-9.365,26.615c-1.367,10.046-1.814,20.15-1.121,30.275c0.424,6.197,1.246,12.365,3.813,18.09
			c1.027,2.291,2.537,4.4,4.043,6.431c1.449,1.955,3.549,3.197,5.923,3.682c2.396,0.49,4.846,0.794,7.288,0.958
			c2.557,0.171,4.739-0.776,6.676-2.545c4.661-4.256,8.194-9.289,10.617-15.08c4.711-11.258,7.722-22.941,8.502-35.156
			C107.438,233.183,107.339,233.008,107.179,232.428z"/>
		<path style="fill:#EF6E45;" d="M385.964,190.71c-1.232-0.064-2.213-0.106-3.193-0.167c-8.913-0.55-17.827-1.091-26.738-1.671
			c-1.085-0.07-2.17-0.291-3.232-0.54c-4.066-0.955-6.64-3.813-6.625-7.293c0.016-3.546,2.736-6.833,6.618-7.709
			c1.944-0.438,3.964-0.679,5.957-0.742c18.317-0.584,36.633-0.779,54.952,0.022c4.91,0.215,9.836,0.036,14.755,0.034
			c5.833-0.002,11.667-0.063,17.499,0.026c1.615,0.025,3.252,0.378,4.829,0.776c6.148,1.553,6.221,6.908,4.543,10.813
			c-1.323,3.078-3.695,5.217-7.117,5.809c-2.597,0.449-5.226,0.967-7.845,0.987c-10.207,0.078-20.415-0.031-30.622-0.069
			c-0.992-0.004-1.984-0.001-3.261-0.001c-0.143,1.969-0.351,3.755-0.392,5.545c-0.331,14.49-0.475,28.985-0.993,43.468
			c-0.355,9.921-1.141,19.83-1.877,29.734c-0.472,6.359-1.125,12.708-1.858,19.043c-0.248,2.145-0.704,4.357-1.555,6.326
			c-2.562,5.93-10.063,7.472-14.82,3.095c-0.956-0.88-1.726-2.178-2.093-3.427c-0.506-1.722-0.782-3.584-0.75-5.38
			c0.254-14.488,0.54-28.977,0.949-43.461c0.216-7.652,0.636-15.299,1.072-22.942c0.54-9.461,1.199-18.916,1.784-28.375
			C386.027,193.435,385.964,192.251,385.964,190.71z"/>
		<path style="fill:#FC69B3;" d="M327.559,239.372c-6.831,0.251-13.446,0.494-20.274,0.744c-0.367,1.131-0.764,2.228-1.078,3.347
			c-3.661,13.061-7.279,26.134-10.987,39.182c-0.819,2.882-1.734,5.772-2.973,8.49c-2.094,4.597-8.663,5.869-12.57,2.616
			c-1.279-1.064-1.913-2.513-1.843-4.099c0.084-1.895,0.255-3.839,0.773-5.652c3.197-11.202,6.441-22.392,9.797-33.549
			c1.782-5.926,3.839-11.768,5.737-17.659c3.099-9.616,6.083-19.27,9.281-28.853c2.478-7.425,5.208-14.767,7.831-22.144
			c0.183-0.514,0.418-1.01,0.609-1.521c2.187-5.861,5.63-8.111,12.833-7.711c1.724,0.096,3.133,0.854,4.333,2.065
			c1.839,1.855,3.166,4.068,3.818,6.546c1.227,4.66,2.406,9.347,3.264,14.085c2.402,13.259,4.698,26.539,6.906,39.832
			c2.029,12.216,3.883,24.461,5.826,36.692c0.628,3.957,1.405,7.893,1.9,11.866c0.302,2.425,0.446,4.924,0.225,7.35
			c-0.543,5.952-4.993,8.529-10.532,6.308c-2.891-1.16-4.935-3.2-5.721-6.189c-0.901-3.425-1.735-6.9-2.173-10.407
			c-0.914-7.319-1.458-14.684-2.325-22.009C329.459,252.294,328.468,245.913,327.559,239.372z M312.382,224.251
			c4.519,0,8.747,0,13.147,0c-1.336-9.976-2.644-19.734-4.027-30.06C317.893,204.361,315.528,214.392,312.382,224.251z"/>
		<path style="fill:#8091FF;" d="M240.532,208.125c3.487,0.134,6.579,0.218,9.666,0.379c7.643,0.4,15.288,0.788,22.925,1.283
			c2.542,0.165,5.032,0.644,7.271,2.099c1.819,1.182,3.039,2.649,3.031,4.855c-0.005,1.533-0.052,3.11-0.412,4.587
			c-0.559,2.293-2.121,3.805-4.464,4.326c-1.238,0.275-2.512,0.439-3.779,0.52c-9.397,0.598-18.751,0.081-28.092-1.018
			c-2.045-0.241-4.143-0.035-6.582-0.035c0.099,11.236-1.366,22.147-1.256,33.261c3.405,0.195,6.493,0.24,9.549,0.573
			c7.787,0.848,15.565,1.781,23.335,2.773c2.685,0.343,5.278,1.19,6.48,3.918c0.562,1.274,1.049,2.889,0.757,4.162
			c-0.456,1.984-1.424,3.92-2.513,5.667c-1.024,1.642-2.857,2.196-4.783,2.149c-3.007-0.073-6.014-0.16-9.018-0.296
			c-9.741-0.441-19.485-0.844-29.22-1.41c-2.433-0.142-4.875-0.689-7.239-1.323c-3.254-0.874-4.542-2.688-4.37-5.995
			c0.687-13.198,1.453-26.391,2.148-39.588c0.446-8.465,0.826-16.934,1.226-25.401c0.417-8.831,0.882-17.661,1.186-26.495
			c0.068-1.985,0.856-3.121,2.637-3.587c1.661-0.434,3.358-0.86,5.062-0.986c8.566-0.637,17.132-0.235,25.687,0.269
			c6.002,0.354,11.994,0.86,17.989,1.318c0.63,0.048,1.252,0.226,1.874,0.358c2.353,0.499,3.642,2.005,3.892,4.341
			c0.465,4.348-1.037,8.399-6.241,9.353c-2.659,0.487-5.434,0.523-8.151,0.472c-6.652-0.126-13.301-0.458-19.953-0.627
			c-1.907-0.049-3.821,0.176-5.732,0.275c-0.999,0.052-1.804,0.369-1.928,1.515C240.869,195.776,240.265,201.74,240.532,208.125z"/>
	</g>
	<g>
		<path style="fill:#EF6E45;" d="M44.073,383.685c0.232-22.322,0.463-44.644,0.696-66.966c0.01-1.002,0.004-2.006,0.054-3.006
			c0.13-2.606,0.869-3.285,3.55-3.377c7.805-0.27,15.44,0.896,22.978,2.784c10.856,2.719,21.097,6.916,30.45,13.113
			c6.047,4.007,11.385,8.897,15.733,14.662c6.171,8.181,9.52,17.559,10.234,27.811c1.036,14.884-2.976,28.539-10.626,41.134
			c-8.144,13.408-18.714,24.574-31.754,33.424c-8.225,5.582-17.278,8.876-26.909,10.85c-3.743,0.767-7.478,1.592-11.243,2.236
			c-2.525,0.432-4.061-0.232-4.002-3.788c0.347-20.771,0.539-41.545,0.776-62.317c0.025-2.186,0.003-4.373,0.003-6.56
			C44.033,383.685,44.053,383.685,44.073,383.685z M59.201,322.267c-0.764,3.681-3.255,118.502-2.653,120.612
			c0.347-0.058,0.721-0.063,1.052-0.186c2.814-1.049,5.626-2.104,8.427-3.186c14.031-5.418,25.686-14.069,34.731-26.067
			c3.891-5.162,7.281-10.743,9.431-16.877c2.504-7.144,4.291-14.514,4.773-22.102c0.414-6.505,0.24-13.013-3.443-18.757
			c-3.403-5.307-7.295-10.289-12.136-14.348c-9.683-8.118-20.751-13.77-32.785-17.522C64.202,323.087,61.668,322.777,59.201,322.267
			z"/>
		<path style="fill:#8091FF;" d="M162.777,363.347c-4.621,0.245-9.149,0.485-13.737,0.728c-1.345,4.481-2.701,8.716-3.888,12.998
			c-5.862,21.152-11.701,42.31-17.496,63.48c-1.322,4.831-2.414,9.724-3.654,14.577c-0.868,3.398-1.599,3.894-4.988,3.388
			c-1.346-0.201-2.703-0.462-3.992-0.886c-2.544-0.837-3.496-2.075-3.104-4.704c0.684-4.59,1.487-9.175,2.526-13.696
			c3.146-13.684,7.503-27.024,11.629-40.432c5.598-18.194,11.077-36.426,16.497-54.674c3.111-10.473,6.08-20.991,8.947-31.533
			c0.677-2.49,1.925-3.801,4.439-3.978c1.545-0.109,3.088-0.305,4.633-0.321c3.82-0.039,4.892,0.773,5.605,4.488
			c0.859,4.472,1.45,8.997,2.366,13.456c1.557,7.58,3.165,15.154,4.952,22.682c3.932,16.573,7.995,33.114,11.989,49.672
			c0.726,3.01,4.202,16.939,4.872,19.962c0.499,2.256,0.146,3.152-2.081,3.585c-2.844,0.553-5.761,0.857-8.658,0.961
			c-2.214,0.08-3.454-1.09-4.113-3.656c-1.018-3.968-4.71-18.878-5.556-22.887c-2.259-10.695-4.466-21.401-6.703-32.1
			C163.21,364.204,163.055,363.971,162.777,363.347z M152.587,352.103c3.098-0.145,5.621,0.113,8.176-0.982
			c-0.807-4.723-1.601-9.372-2.395-14.022c-0.225-0.026-0.45-0.053-0.675-0.079C156.051,341.872,154.408,346.723,152.587,352.103z"
			/>
		<path style="fill:#FC69B3;" d="M210.06,337.644c3.542-4.761,6.676-9.366,10.213-13.635c4.997-6.031,10.322-11.791,15.448-17.716
			c2.037-2.354,4.438-3.323,7.529-2.723c1.784,0.347,3.62,0.42,5.415,0.718c3.059,0.509,3.715,2.006,1.888,4.508
			c-2.9,3.973-5.823,7.935-8.882,11.786c-5.839,7.349-11.773,14.623-17.681,21.917c-6.611,8.162-6.582,8.16-7.67,18.613
			c-1.029,9.878-2.139,19.746-3.225,29.618c-0.376,3.425-1.077,4.073-4.565,3.851c-1.713-0.109-3.413-0.502-5.107-0.831
			c-2.213-0.43-3.216-1.875-3.272-4.071c-0.042-1.64-0.2-3.282-0.151-4.918c0.24-7.923,0.395-15.853,0.842-23.765
			c0.501-8.863,0.501-8.793-3.537-16.567c-2.599-5.004-4.864-10.188-7.113-15.363c-1.995-4.592-3.834-9.257-5.61-13.939
			c-1.875-4.945-1.486-5.624,3.71-6.979c1.398-0.365,2.86-0.532,4.304-0.66c1.604-0.142,2.805,0.56,3.553,2.027
			c1.2,2.353,2.478,4.668,3.634,7.042c3.149,6.47,6.248,12.965,9.374,19.446C209.39,336.486,209.673,336.944,210.06,337.644z"/>
	</g>
	<g>
		<path style="fill:#EF6E45;" d="M344.09,108.628c-4.684-2.582-9.211-5.076-13.971-7.7c-2.201,1.881-4.521,3.899-6.883,5.867
			c-1.047,0.872-2.117,1.749-3.286,2.438c-2.266,1.335-4.344,1.109-6.038-0.483c-1.682-1.58-2.151-4.098-0.749-6.254
			c1.177-1.811,2.619-3.536,4.245-4.953c5.906-5.147,11.871-10.231,17.949-15.174c3.814-3.102,7.836-5.953,11.83-8.826
			c1.842-1.325,3.747-2.627,5.786-3.598c3.308-1.575,7.073-0.193,8.95,2.956c1.104,1.851,1.783,3.817,1.604,5.97
			c-0.203,2.445-0.284,4.949-0.895,7.304c-2.901,11.192-5.503,22.478-9.682,33.299c-0.393,1.017-0.795,2.046-1.336,2.987
			c-1.545,2.691-3.818,3.703-6.372,2.938c-2.671-0.8-4.481-3.411-4.132-6.32c0.204-1.703,0.717-3.379,1.198-5.037
			C342.836,112.224,343.488,110.441,344.09,108.628z M347.507,97.983c1.79-5.352,3.463-10.356,5.136-15.36
			c-4.722,2.958-8.976,6.215-13.17,10.037C342.247,94.498,344.707,96.128,347.507,97.983z"/>
		<path style="fill:#F1A9DB;" d="M173.279,78.675c-1.255-3.333-2.536-6.625-3.721-9.952c-0.33-0.925-0.541-1.953-0.527-2.93
			c0.052-3.617,3.575-5.604,6.534-3.546c1.519,1.057,2.787,2.611,3.839,4.164c1.06,1.565,1.763,3.384,2.535,5.13
			c2.431,5.494,4.935,10.96,7.178,16.531c1.078,2.679,1.782,5.539,2.354,8.377c0.253,1.251,0.053,2.782-0.46,3.96
			c-1.104,2.535-3.919,3.211-6.153,1.571c-1.002-0.735-1.884-1.735-2.567-2.78c-1.042-1.595-1.881-3.324-2.773-5.014
			c-0.843-1.596-1.645-3.215-2.629-5.146c-6.977,4.807-13.755,9.476-20.776,14.313c0.824,1.985,1.6,3.704,2.256,5.467
			c1.012,2.717,2.159,5.411,2.848,8.213c0.724,2.947-0.085,4.507-2.053,5.271c-2.009,0.78-3.568,0.172-5.283-2.221
			c-1.006-1.404-2-2.843-2.778-4.379c-4.604-9.092-9.148-18.215-13.696-27.337c-0.364-0.73-0.767-1.503-0.859-2.29
			c-0.123-1.053-0.196-2.217,0.125-3.198c1.124-3.432,4.467-4.095,6.712-1.269c1.634,2.058,2.993,4.346,4.363,6.6
			c1.083,1.781,1.997,3.665,2.981,5.492C152.578,93.125,170.657,81.049,173.279,78.675z"/>
		<path style="fill:#FC69B3;" d="M223.137,81.078c-5.265,0.839-10.285,1.639-15.564,2.48c-0.362,1.245-0.731,2.527-1.107,3.807
			c-0.59,2.006-1.056,4.061-1.821,5.998c-0.524,1.326-1.312,2.625-2.262,3.685c-1.228,1.37-2.881,1.844-4.731,1.175
			c-1.869-0.676-2.807-2.117-2.764-3.972c0.043-1.89,0.256-3.834,0.776-5.645c2.464-8.57,5.053-17.104,7.611-25.646
			c1.044-3.487,2.097-6.972,3.199-10.442c0.732-2.308,1.899-4.337,4.07-5.623c2.616-1.55,5.347-1.508,7.547,0.595
			c1.754,1.677,3.354,3.617,4.618,5.687c5.431,8.894,9.509,18.432,12.894,28.265c0.551,1.601,0.788,3.36,0.868,5.061
			c0.087,1.853-0.825,3.436-2.525,4.214c-1.84,0.842-3.837,0.751-5.393-0.632c-1.126-1.001-2.062-2.292-2.829-3.602
			C224.763,84.843,224.064,83.051,223.137,81.078z M210.193,72.607c3.181-0.505,5.835-0.926,8.862-1.407
			c-1.593-3.575-3.079-6.91-4.565-10.244c-0.21,0.01-0.419,0.019-0.629,0.029C212.7,64.665,211.538,68.345,210.193,72.607z"/>
		<path style="fill:#73D4A2;" d="M255.541,79.98c0.464-1.452,0.81-2.445,1.098-3.454c2.725-9.554,5.841-18.97,9.873-28.063
			c0.442-0.998,0.803-2.075,1.449-2.929c0.864-1.143,1.833-2.305,3.002-3.096c1.819-1.23,3.903-1.595,5.93-0.362
			c1.967,1.196,2.348,3.138,2.173,5.244c-0.068,0.811-0.233,1.624-0.446,2.411c-3.507,12.966-8.634,25.321-14.232,37.492
			c-0.6,1.304-1.482,2.517-2.411,3.624c-2.8,3.336-7.187,3.77-10.373,0.764c-1.753-1.654-3.199-3.741-4.401-5.851
			c-4.291-7.533-7.763-15.457-10.73-23.6c-0.841-2.309-1.653-4.632-2.374-6.981c-0.344-1.12-0.574-2.31-0.625-3.478
			c-0.114-2.568,1.229-4.507,3.492-5.309c1.846-0.655,3.965,0.105,5.471,2.113c0.647,0.863,1.17,1.855,1.573,2.859
			c0.88,2.196,1.597,4.457,2.47,6.656c2.62,6.601,5.28,13.186,7.937,19.772C254.652,78.37,254.987,78.908,255.541,79.98z"/>
		<path style="fill:#8091FF;" d="M296.804,59.883c-2.009,3.082-3.887,5.961-5.838,8.954c1.709,0.948,3.231,1.753,4.71,2.627
			c1.175,0.694,2.355,1.401,3.433,2.232c2.252,1.736,2.72,3.592,1.642,5.981c-1.161,2.575-2.893,3.514-5.743,2.779
			c-2.103-0.543-4.136-1.376-6.177-2.14c-1.177-0.441-2.308-1.002-3.685-1.609c-1.135,1.911-2.186,3.681-3.325,5.601
			c0.654,0.445,1.213,0.881,1.821,1.231c3.707,2.139,7.451,4.216,11.128,6.406c1.398,0.833,2.797,1.764,3.939,2.907
			c2.262,2.265,1.482,5.538-1.532,6.518c-1.072,0.349-2.379,0.501-3.453,0.236c-7.756-1.91-14.962-5.156-21.673-9.458
			c-2.636-1.69-2.807-2.452-1.699-5.514c2.796-7.728,6.316-15.128,10.443-22.226c2.609-4.487,5.428-8.852,8.118-13.293
			c1.29-2.13,2.947-2.904,5.504-2.337c6.25,1.387,12.266,3.427,18.143,5.922c0.417,0.177,0.835,0.378,1.204,0.637
			c1.697,1.191,2.679,3.572,2.184,5.228c-0.529,1.771-2.091,3.025-4.414,3c-1.973-0.021-3.99-0.323-5.899-0.831
			C302.742,61.963,299.926,60.907,296.804,59.883z"/>
	</g>
	<g>
		<path style="fill:#FFFFFF;" d="M251.473,132.043c0,8.294,0.002,16.588-0.003,24.882c-0.001,1.002,0.057,2.016-0.078,3.002
			c-0.191,1.397-1.124,2.193-2.353,2.208c-1.232,0.014-2.146-0.751-2.447-2.139c-0.115-0.527-0.104-1.087-0.114-1.632
			c-0.251-14.498,0.078-28.983,0.845-43.462c0.14-2.639,0.151-5.285,0.281-7.925c0.044-0.898,0.15-1.83,0.444-2.67
			c0.457-1.309,1.616-1.946,2.766-1.668c1.22,0.295,1.858,1.156,1.912,2.361c0.044,0.995-0.1,1.998-0.139,2.998
			c-0.312,8.014-0.62,16.029-0.929,24.044C251.596,132.042,251.535,132.042,251.473,132.043z"/>
		<path style="fill:#FFFFFF;" d="M296.268,114.085c-0.172,0.499-0.427,1.371-0.766,2.209c-2.285,5.657-4.69,11.267-6.86,16.967
			c-3.532,9.273-6.921,18.601-10.356,27.911c-0.914,2.477-1.974,3.307-3.581,2.712c-1.544-0.571-2.009-2.036-1.103-4.46
			c4.334-11.597,8.716-23.176,13.114-34.749c1.294-3.404,2.69-6.769,4.06-10.143c0.341-0.841,0.655-1.723,1.167-2.456
			c0.703-1.004,1.777-1.241,2.921-0.796C295.938,111.698,296.312,112.59,296.268,114.085z"/>
		<path style="fill:#FFFFFF;" d="M208.107,113.388c-0.035-1.924,0.698-2.989,1.963-3.221c1.291-0.237,2.403,0.431,2.855,1.955
			c0.724,2.443,1.266,4.94,1.975,7.388c3.469,11.98,6.969,23.95,10.449,35.926c0.228,0.785,0.485,1.585,0.537,2.391
			c0.077,1.208-0.496,2.14-1.69,2.51c-1.205,0.374-2.175-0.11-2.786-1.156c-0.361-0.618-0.576-1.335-0.778-2.03
			c-3.933-13.551-7.858-27.105-11.771-40.661C208.534,115.355,208.301,114.194,208.107,113.388z"/>
		<path style="fill:#FFFFFF;" d="M324.272,134.313c-0.182,0.379-0.458,1.144-0.883,1.815c-6.235,9.84-12.489,19.668-18.741,29.497
			c-0.244,0.383-0.469,0.788-0.769,1.124c-0.892,1.001-2.177,1.26-3.191,0.688c-1.044-0.589-1.471-1.8-1.003-3.092
			c0.214-0.592,0.553-1.149,0.893-1.685c6.038-9.534,12.073-19.07,18.148-28.581c0.525-0.823,1.211-1.648,2.019-2.164
			C322.299,130.924,324.193,132.057,324.272,134.313z"/>
		<path style="fill:#FFFFFF;" d="M202.925,160.727c-0.51,0.655-0.917,1.495-1.584,1.958c-0.915,0.635-1.962,0.359-2.727-0.436
			c-0.428-0.444-0.718-1.041-0.998-1.604c-4.171-8.39-8.331-16.786-12.487-25.182c-0.362-0.732-0.796-1.454-0.999-2.233
			c-0.298-1.145-0.008-2.174,1.111-2.811c1.074-0.612,2.235-0.358,3.16,0.711c0.235,0.272,0.433,0.589,0.594,0.912
			c4.309,8.626,8.618,17.252,12.902,25.891C202.294,158.736,202.523,159.622,202.925,160.727z"/>
		<path style="fill:#FFFFFF;" d="M333.388,157.471c-0.487,0.833-0.754,1.648-1.302,2.168c-2.897,2.747-5.834,5.454-8.822,8.101
			c-1.358,1.203-2.637,1.176-3.626,0.17c-0.97-0.987-1.052-2.495,0.149-3.661c2.928-2.842,5.961-5.579,9.01-8.292
			c0.844-0.751,1.984-1.104,3.016-0.38C332.423,156.006,332.809,156.753,333.388,157.471z"/>
		<path style="fill:#FFFFFF;" d="M169.169,155.875c0.314,0.116,0.966,0.163,1.296,0.513c1.18,1.25,2.351,2.534,3.33,3.942
			c0.702,1.01,0.375,2.116-0.542,2.948c-0.887,0.804-2.257,0.83-3.219-0.117c-1.098-1.08-2.162-2.244-2.993-3.532
			C165.944,157.931,167.054,155.911,169.169,155.875z"/>
	</g>
	<g>
		<path style="fill:#FFD400;" d="M318.042,454.964c-37.289,0-74.578-0.002-111.867,0.004c-3.008,0.001-6.017,0.084-9.025,0.079
			c-0.995-0.001-2.03-0.015-2.979-0.272c-2.465-0.668-3.797-3.03-3.105-5.513c1.356-4.866,3.647-9.326,6.178-13.661
			c6.132-10.503,13.284-20.289,21.281-29.43c6.51-7.44,13.975-13.892,22.099-19.499c10.846-7.485,22.562-13.43,34.91-17.963
			c11.894-4.366,24.299-6.21,36.994-6.384c19.444-0.267,38.344,2.846,56.601,9.335c18.219,6.475,33.615,17.227,46.152,32.073
			c10.84,12.837,20.008,26.663,26.24,42.329c0.602,1.513,1.179,3.09,1.399,4.687c0.352,2.559-0.576,3.492-3.167,3.533
			c-2.917,0.047-5.835,0.03-8.752,0.03c-37.653,0.002-75.306,0.001-112.959,0.001C318.042,454.531,318.042,454.747,318.042,454.964z
			"/>
		<g>
			<path style="fill:#FFD400;" d="M412.091,317.221c1.429-0.081,2.706,1.49,2.184,3.135c-0.27,0.852-0.799,1.632-1.27,2.408
				c-9.214,15.189-18.435,30.374-27.665,45.552c-0.375,0.617-0.784,1.249-1.31,1.729c-0.913,0.833-1.999,0.873-3.007,0.165
				c-0.909-0.639-1.255-1.603-0.876-2.653c0.306-0.848,0.768-1.65,1.238-2.426c9.269-15.262,18.551-30.517,27.826-45.776
				C409.841,318.32,410.503,317.346,412.091,317.221z"/>
			<path style="fill:#FFD400;" d="M368.536,306.909c-0.163,0.485-0.435,1.347-0.74,2.198c-3.493,9.769-7.115,19.495-10.441,29.321
				c-1.923,5.683-3.362,11.53-5.043,17.295c-0.252,0.865-0.53,1.756-0.99,2.518c-0.585,0.97-1.687,1.301-2.624,0.811
				c-0.695-0.364-1.337-1.208-1.567-1.969c-0.215-0.71,0.069-1.613,0.264-2.398c4.075-16.376,9.975-32.149,15.902-47.912
				c0.281-0.748,0.653-1.632,1.26-2.042c0.656-0.444,1.683-0.66,2.467-0.519C368.108,304.405,368.58,305.371,368.536,306.909z"/>
			<path style="fill:#FFD400;" d="M310.98,327.733c0,8.711,0.011,15.899-0.013,23.088c-0.003,0.988-0.053,2.013-0.318,2.954
				c-0.337,1.198-1.316,1.721-2.546,1.568c-1.108-0.138-1.808-0.819-2.008-1.928c-0.096-0.534-0.129-1.086-0.124-1.629
				c0.132-12.919,0.268-25.838,0.417-38.756c0.019-1.637,0.109-3.273,0.177-4.91c0.03-0.727,0.024-1.463,0.143-2.177
				c0.3-1.798,1.453-2.824,2.876-2.638c1.342,0.176,2.122,1.218,2.07,3.029C311.438,313.975,311.177,321.613,310.98,327.733z"/>
			<path style="fill:#FFD400;" d="M276.609,356.822c-0.505,0.628-0.956,1.589-1.711,2.03c-1.031,0.602-2.171,0.226-2.867-0.802
				c-0.451-0.666-0.764-1.443-1.043-2.205c-4.132-11.26-8.248-22.526-12.368-33.79c-0.749-2.048-1.505-4.095-2.244-6.147
				c-0.214-0.595-0.456-1.197-0.547-1.816c-0.162-1.104,0.296-1.995,1.305-2.463c1.108-0.513,2.22-0.318,2.937,0.672
				c0.574,0.792,0.966,1.744,1.303,2.675c2.628,7.263,5.192,14.549,7.836,21.805c2.084,5.72,4.258,11.407,6.384,17.111
				C275.911,354.741,276.188,355.604,276.609,356.822z"/>
			<path style="fill:#FFD400;" d="M434.929,354.706c-0.291,0.431-0.693,1.241-1.29,1.867c-1.63,1.712-3.353,3.335-5.019,5.013
				c-6.471,6.52-12.931,13.05-19.405,19.567c-0.767,0.772-1.521,1.591-2.412,2.195c-0.993,0.674-2.102,0.582-2.991-0.305
				c-0.884-0.882-0.987-1.941-0.322-2.985c0.386-0.605,0.896-1.143,1.405-1.657c8.128-8.207,16.26-16.411,24.409-24.596
				c0.634-0.637,1.336-1.286,2.133-1.663C433.141,351.338,434.939,352.498,434.929,354.706z"/>
			<path style="fill:#FFD400;" d="M246.863,377.404c-0.009,2.195-1.897,3.389-3.477,2.51c-0.684-0.381-1.278-1.02-1.757-1.658
				c-5.9-7.853-11.776-15.725-17.641-23.604c-0.539-0.724-1.084-1.487-1.409-2.316c-0.431-1.1-0.2-2.171,0.816-2.919
				c0.96-0.707,2.254-0.537,3.227,0.398c0.26,0.25,0.464,0.559,0.682,0.85c6.089,8.166,12.184,16.328,18.252,24.509
				C246.136,375.956,246.549,376.862,246.863,377.404z"/>
			<path style="fill:#FFD400;" d="M437.875,391.213c0.731,0.598,1.754,1.059,2.088,1.822c0.286,0.655-0.128,1.685-0.408,2.488
				c-0.122,0.352-0.661,0.583-1.043,0.818c-3.471,2.138-6.947,4.27-10.428,6.391c-0.618,0.376-1.243,0.769-1.914,1.022
				c-1.301,0.491-2.457,0.11-3.108-0.915c-0.653-1.029-0.465-2.227,0.549-3.179c0.326-0.306,0.73-0.534,1.114-0.771
				c3.313-2.05,6.617-4.115,9.954-6.126C435.597,392.207,436.614,391.817,437.875,391.213z"/>
			<path style="fill:#FFD400;" d="M210.414,407.517c-0.011,2.034-1.716,3.09-3.514,2.343c-0.828-0.344-1.571-0.894-2.347-1.361
				c-2.641-1.588-5.284-3.171-7.913-4.777c-0.459-0.28-0.922-0.604-1.268-1.007c-0.718-0.837-0.827-1.808-0.27-2.778
				c0.563-0.98,1.642-1.584,2.524-1.081c4.148,2.367,8.205,4.893,12.252,7.432C210.243,406.518,210.301,407.239,210.414,407.517z"/>
			<path style="fill:#FFD400;" d="M187.257,433.796c-1.681-0.179-3.13-0.985-3.956-2.455c-0.365-0.65-0.33-1.898,0.076-2.504
				c0.399-0.594,1.553-1.073,2.28-0.964c1.114,0.168,2.209,0.781,3.195,1.393c0.999,0.62,1.424,1.625,1.007,2.829
				C189.441,433.3,188.454,433.666,187.257,433.796z"/>
			<path style="fill:#FFD400;" d="M442.641,428.237c-1.388-0.051-2.447-1.097-2.433-2.407c0.015-1.445,1.506-2.72,3.187-2.725
				c1.5-0.005,2.659,1.145,2.571,2.549C445.875,427.081,444.31,428.298,442.641,428.237z"/>
		</g>
		<g>
			<path d="M322.615,438.367c-12.212-0.093-19.536-5.258-24.104-14.592c-0.876-1.789-1.514-3.709-2.108-5.617
				c-0.289-0.929-0.374-1.982-0.284-2.953c0.135-1.462,1.103-2.366,2.418-2.58c1.485-0.242,2.675,0.385,3.288,1.828
				c0.246,0.579,0.251,1.261,0.504,1.835c1.17,2.652,2.135,5.438,3.636,7.894c4.738,7.755,12.837,8.753,19.299,7.493
				c3.152-0.615,5.651-2.451,7.698-4.893c3.014-3.595,5.305-7.612,6.949-12.001c0.287-0.766,0.505-1.572,0.896-2.282
				c0.903-1.639,2.398-2.222,3.875-1.614c1.542,0.635,2.286,2.048,1.766,3.806c-0.516,1.741-1.033,3.54-1.923,5.1
				c-2.069,3.627-4.079,7.344-6.627,10.626C333.558,436.007,328.062,438.361,322.615,438.367z"/>
			<path d="M363.975,408.12c-0.024-3.384,2.667-6.094,6.038-6.079c3.334,0.014,6.094,2.814,6.038,6.126
				c-0.053,3.192-2.75,5.898-5.949,5.97C366.783,414.211,363.999,411.478,363.975,408.12z"/>
			<path d="M275.509,416.654c-3.439,0.063-6.105-2.508-6.135-5.918c-0.03-3.371,2.667-6.111,6.01-6.107
				c3.19,0.004,5.93,2.654,6.044,5.847C281.547,413.801,278.874,416.592,275.509,416.654z"/>
		</g>
	</g>
	<g>
		<path style="fill:#FFFFFF;" d="M451.805,160.346c-0.344-4.137-1.334-8.196-3.802-11.553c-4.074-5.542-9.435-8.838-16.649-7.718
			c-3.291,0.511-6.151,2.187-8.959,3.91c-0.709,0.435-1.305,1.261-2.491,0.984c0.028-0.62,0.076-1.16,0.072-1.699
			c-0.068-9.833-5.939-18.447-15.073-22.129c-8.51-3.43-17.619-0.563-22.389,7.255c-1.36,2.228-2.226,4.769-3.215,7.208
			c-0.542,1.335-0.867,2.758-1.395,4.485c-0.936-0.75-1.497-1.2-2.057-1.648c-5.104-4.088-10.787-5.081-16.961-3.022
			c-9.866,3.29-16.469,12.403-16.901,23.261c-0.103,2.581,0.884,3.434,3.725,3.484c22.141,0.395,44.283,0.776,66.424,1.183
			c11.754,0.216,23.507,0.498,35.261,0.695C450.707,165.097,452.078,163.64,451.805,160.346z"/>
		<path style="fill:#FFFFFF;" d="M121.486,137.268c-2.306,1.283-4.593,2.599-6.903,3.874c-0.58,0.32-1.215,0.538-2.026,0.891
			c-0.605-5.464-2.159-10.266-5.036-14.6c-1.789-2.694-3.893-5.054-6.8-6.579c-4.029-2.113-8.603-1.743-11.688,1.252
			c-1.472,1.429-2.771,3.192-3.647,5.041c-1.277,2.694-2.102,5.602-3.239,8.75c-0.947-0.746-1.838-1.488-2.77-2.176
			c-7.472-5.514-17.253-4.724-23.556,2.067c-5.803,6.252-7.49,13.992-7.47,22.233c0.004,1.684,0.686,2.21,2.375,2.387
			c0.451,0.047,0.91,0.024,1.366,0.031c24.691,0.408,49.382,0.81,74.073,1.229c6.286,0.107,12.572,0.295,18.858,0.394
			c2.562,0.04,3.186-0.512,3.617-3.063c0.476-2.815,0.377-5.619-0.276-8.411C144.983,136.141,130.407,132.305,121.486,137.268z"/>
	</g>
</g>
</svg>
